<svg id="SvgjsSvg1000" xmlns="http://www.w3.org/2000/svg" version="1.1" xmlns:xlink="http://www.w3.org/1999/xlink" xmlns:svgjs="http://svgjs.com/svgjs" width="535" height="620"><defs id="SvgjsDefs1001"><marker id="SvgjsMarker1049" markerWidth="16" markerHeight="12" refX="16" refY="6" viewBox="0 0 16 12" orient="auto" markerUnits="userSpaceOnUse"><path id="SvgjsPath1050" d="M0 2L14 6L0 11L0 2 " fill="#323232" stroke="#323232" stroke-width="2"></path></marker><marker id="SvgjsMarker1053" markerWidth="16" markerHeight="12" refX="16" refY="6" viewBox="0 0 16 12" orient="auto" markerUnits="userSpaceOnUse"><path id="SvgjsPath1054" d="M0 2L14 6L0 11L0 2 " fill="#323232" stroke="#323232" stroke-width="2"></path></marker><marker id="SvgjsMarker1061" markerWidth="16" markerHeight="12" refX="16" refY="6" viewBox="0 0 16 12" orient="auto" markerUnits="userSpaceOnUse"><path id="SvgjsPath1062" d="M0 2L14 6L0 11L0 2 " fill="#323232" stroke="#323232" stroke-width="2"></path></marker><marker id="SvgjsMarker1069" markerWidth="16" markerHeight="12" refX="16" refY="6" viewBox="0 0 16 12" orient="auto" markerUnits="userSpaceOnUse"><path id="SvgjsPath1070" d="M0 2L14 6L0 11L0 2 " fill="#323232" stroke="#323232" stroke-width="2"></path></marker><marker id="SvgjsMarker1077" markerWidth="16" markerHeight="12" refX="16" refY="6" viewBox="0 0 16 12" orient="auto" markerUnits="userSpaceOnUse"><path id="SvgjsPath1078" d="M0 2L14 6L0 11L0 2 " fill="#323232" stroke="#323232" stroke-width="2"></path></marker></defs><g id="SvgjsG1007" transform="translate(30,25)"><path id="SvgjsPath1008" d="M0 11.11111111111111L133.33333333333331 11.11111111111111L133.33333333333331 100L0 100L0 11.11111111111111Z " stroke="rgba(50,50,50,1)" stroke-width="2" fill-opacity="1" fill="#ffffff"></path><path id="SvgjsPath1009" d="M0 11.11111111111111L16.666666666666664 0L150 0L150 88.88888888888889L133.33333333333331 100L133.33333333333331 11.11111111111111L0 11.11111111111111ZM133.33333333333331 11.11111111111111L150 0 " stroke="rgba(50,50,50,1)" stroke-width="2" fill-opacity="1" fill="#e6e6e6"></path><path id="SvgjsPath1010" d="M0 0L150 0L150 100L0 100Z " stroke="none" fill="none"></path><g id="SvgjsG1011"><text id="SvgjsText1012" font-family="微软雅黑" text-anchor="middle" font-size="13px" width="99" fill="#323232" font-weight="700" align="middle" font-style="" opacity="1" y="45.605555555555554" transform="rotate(0)"><tspan id="SvgjsTspan1013" dy="16" x="67.5"><tspan id="SvgjsTspan1014" style="text-decoration:;">elastic-transfer</tspan></tspan></text></g></g><g id="SvgjsG1015" transform="translate(360,495)"><path id="SvgjsPath1016" d="M0 11.11111111111111L133.33333333333331 11.11111111111111L133.33333333333331 100L0 100L0 11.11111111111111Z " stroke="rgba(50,50,50,1)" stroke-width="2" fill-opacity="1" fill="#ffffff"></path><path id="SvgjsPath1017" d="M0 11.11111111111111L16.666666666666664 0L150 0L150 88.88888888888889L133.33333333333331 100L133.33333333333331 11.11111111111111L0 11.11111111111111ZM133.33333333333331 11.11111111111111L150 0 " stroke="rgba(50,50,50,1)" stroke-width="2" fill-opacity="1" fill="#e6e6e6"></path><path id="SvgjsPath1018" d="M0 0L150 0L150 100L0 100Z " stroke="none" fill="none"></path><g id="SvgjsG1019"><text id="SvgjsText1020" font-family="微软雅黑" text-anchor="middle" font-size="13px" width="104" fill="#323232" font-weight="700" align="middle" font-style="" opacity="1" y="45.605555555555554" transform="rotate(0)"><tspan id="SvgjsTspan1021" dy="16" x="67.5"><tspan id="SvgjsTspan1022" style="text-decoration:;">elastic-collector</tspan></tspan></text></g></g><g id="SvgjsG1023" transform="translate(30,495)"><path id="SvgjsPath1024" d="M0 11.11111111111111L133.33333333333331 11.11111111111111L133.33333333333331 100L0 100L0 11.11111111111111Z " stroke="rgba(50,50,50,1)" stroke-width="2" fill-opacity="1" fill="#ffffff"></path><path id="SvgjsPath1025" d="M0 11.11111111111111L16.666666666666664 0L150 0L150 88.88888888888889L133.33333333333331 100L133.33333333333331 11.11111111111111L0 11.11111111111111ZM133.33333333333331 11.11111111111111L150 0 " stroke="rgba(50,50,50,1)" stroke-width="2" fill-opacity="1" fill="#e6e6e6"></path><path id="SvgjsPath1026" d="M0 0L150 0L150 100L0 100Z " stroke="none" fill="none"></path><g id="SvgjsG1027"><text id="SvgjsText1028" font-family="微软雅黑" text-anchor="middle" font-size="13px" width="84" fill="#323232" font-weight="700" align="middle" font-style="" opacity="1" y="45.605555555555554" transform="rotate(0)"><tspan id="SvgjsTspan1029" dy="16" x="67.5"><tspan id="SvgjsTspan1030" style="text-decoration:;">elasticsearch</tspan></tspan></text></g></g><g id="SvgjsG1031" transform="translate(25,258.5)"><path id="SvgjsPath1032" d="M0 50L80 0L160 50L80 100Z " stroke="rgba(50,50,50,1)" stroke-width="2" fill-opacity="1" fill="#ffffff"></path><g id="SvgjsG1033"><text id="SvgjsText1034" font-family="微软雅黑" text-anchor="middle" font-size="13px" width="91" fill="#323232" font-weight="400" align="middle" font-style="" opacity="1" y="32.55" transform="rotate(0)"><tspan id="SvgjsTspan1035" dy="16" x="80.5"><tspan id="SvgjsTspan1036" style="text-decoration:;">If elasticsearch</tspan></tspan><tspan id="SvgjsTspan1037" dy="16" x="80.5"><tspan id="SvgjsTspan1038" style="text-decoration:;">online</tspan></tspan></text></g></g><g id="SvgjsG1039" transform="translate(385,258.5)"><path id="SvgjsPath1040" d="M0 11.11111111111111L88.88888888888889 11.11111111111111L88.88888888888889 100L0 100L0 11.11111111111111Z " stroke="rgba(50,50,50,1)" stroke-width="2" fill-opacity="1" fill="#ffffff"></path><path id="SvgjsPath1041" d="M0 11.11111111111111L11.11111111111111 0L100 0L100 88.88888888888889L88.88888888888889 100L88.88888888888889 11.11111111111111L0 11.11111111111111ZM88.88888888888889 11.11111111111111L100 0 " stroke="rgba(50,50,50,1)" stroke-width="2" fill-opacity="1" fill="#e6e6e6"></path><path id="SvgjsPath1042" d="M0 0L100 0L100 100L0 100Z " stroke="none" fill="none"></path><g id="SvgjsG1043"><text id="SvgjsText1044" font-family="微软雅黑" text-anchor="middle" font-size="13px" width="24" fill="#323232" font-weight="700" align="middle" font-style="" opacity="1" y="45.605555555555554" transform="rotate(0)"><tspan id="SvgjsTspan1045" dy="16" x="45"><tspan id="SvgjsTspan1046" style="text-decoration:;">MQ</tspan></tspan></text></g></g><g id="SvgjsG1047"><path id="SvgjsPath1048" d="M105 125L105 191.75L105 191.75L105 258.5 " stroke="#323232" stroke-width="2" fill="none" marker-end="url(#SvgjsMarker1049)"></path></g><g id="SvgjsG1051"><path id="SvgjsPath1052" d="M105 358.5L105 426.75L105 426.75L105 495 " stroke="#323232" stroke-width="2" fill="none" marker-end="url(#SvgjsMarker1053)"></path><rect id="SvgjsRect1055" width="62" height="16" x="74" y="418.75" fill="#ffffff"></rect><text id="SvgjsText1056" font-family="微软雅黑" text-anchor="middle" font-size="13px" width="62" fill="#323232" font-weight="400" align="top" font-style="" opacity="1" y="416.8" transform="rotate(0)"><tspan id="SvgjsTspan1057" dy="16" x="105"><tspan id="SvgjsTspan1058" style="text-decoration:;">Push data</tspan></tspan></text></g><g id="SvgjsG1059"><path id="SvgjsPath1060" d="M185 308.5L285 308.5L285 308.5L385 308.5 " stroke-dasharray="8,5" stroke="#323232" stroke-width="2" fill="none" marker-end="url(#SvgjsMarker1061)"></path><rect id="SvgjsRect1063" width="19" height="16" x="275.5" y="300.5" fill="#ffffff"></rect><text id="SvgjsText1064" font-family="微软雅黑" text-anchor="middle" font-size="13px" width="19" fill="#323232" font-weight="400" align="top" font-style="" opacity="1" y="298.55" transform="rotate(0)"><tspan id="SvgjsTspan1065" dy="16" x="285"><tspan id="SvgjsTspan1066" style="text-decoration:;">No</tspan></tspan></text></g><g id="SvgjsG1067"><path id="SvgjsPath1068" d="M435 358.5L435 426.75L435 426.75L435 495 " stroke-dasharray="8,5" stroke="#323232" stroke-width="2" fill="none" marker-end="url(#SvgjsMarker1069)"></path><rect id="SvgjsRect1071" width="104" height="16" x="383" y="418.75" fill="#ffffff"></rect><text id="SvgjsText1072" font-family="微软雅黑" text-anchor="middle" font-size="13px" width="104" fill="#323232" font-weight="400" align="top" font-style="" opacity="1" y="416.8" transform="rotate(0)"><tspan id="SvgjsTspan1073" dy="16" x="435"><tspan id="SvgjsTspan1074" style="text-decoration:;">Subscribe queue</tspan></tspan></text></g><g id="SvgjsG1075"><path id="SvgjsPath1076" d="M360 545L270 545L270 545L180 545 " stroke-dasharray="8,5" stroke="#323232" stroke-width="2" fill="none" marker-end="url(#SvgjsMarker1077)"></path><rect id="SvgjsRect1079" width="68" height="16" x="236" y="537" fill="#ffffff"></rect><text id="SvgjsText1080" font-family="微软雅黑" text-anchor="middle" font-size="13px" width="68" fill="#323232" font-weight="400" align="top" font-style="" opacity="1" y="535.05" transform="rotate(0)"><tspan id="SvgjsTspan1081" dy="16" x="270"><tspan id="SvgjsTspan1082" style="text-decoration:;">Push again</tspan></tspan></text></g></svg>